<svg width="33" height="38" viewBox="0 0 33 38" fill="none" xmlns="http://www.w3.org/2000/svg">
<path d="M13.0177 35.2713C-3.76901 26.5322 -0.0838613 8.5001 3.85705 0.576468C24.3043 5.36416 21.9995 25.5756 18.2912 35.0828C8.30629 21.6431 9.0768 13.6559 8.19261 18.4633C7.48527 22.3092 11.1146 31.2711 13.0177 35.2713Z" fill="#BED579"/>
<g clip-path="url(#clip0_2_255)">
<path d="M17.2881 29.9536C27.7478 29.9536 28.5905 18.5123 28.6578 13.0752C28.6585 12.9273 28.636 12.7807 28.5918 12.6442C28.5476 12.5076 28.4825 12.3839 28.4004 12.2803C28.3183 12.1766 28.2209 12.0952 28.1139 12.0408C28.007 11.9865 27.8926 11.9602 27.7776 11.9637C12.9131 12.3147 12.9131 21.5802 12.9131 29.9536V34.4536" stroke="#3D713C" stroke-width="2" stroke-linecap="round" stroke-linejoin="round"/>
<path d="M12.913 29.9541C12.913 29.9541 12.913 23.2041 19.913 22.0791" stroke="#3D713C" stroke-width="2" stroke-linecap="round" stroke-linejoin="round"/>
</g>
<defs>
<clipPath id="clip0_2_255">
<rect width="21" height="27" fill="white" transform="translate(12 10.9995)"/>
</clipPath>
</defs>
</svg>
